<svg width="60" height="58" viewBox="0 0 60 58" fill="none" xmlns="http://www.w3.org/2000/svg">
<rect width="60" height="58" rx="11" fill="#FC4D4D"/>
<path d="M45.1466 39.1991L34.6075 29L45.1466 18.8009C46.2845 17.6997 46.2845 15.927 45.1466 14.8258C44.0088 13.7247 42.177 13.7247 41.0391 14.8258L30.5 25.025L19.9609 14.8258C18.8231 13.7247 16.9912 13.7247 15.8534 14.8258C14.7155 15.927 14.7155 17.6997 15.8534 18.8009L26.3925 29L15.8534 39.1991C14.7155 40.3003 14.7155 42.073 15.8534 43.1742C16.9912 44.2753 18.8231 44.2753 19.9609 43.1742L30.5 32.975L41.0391 43.1742C42.177 44.2753 44.0088 44.2753 45.1466 43.1742C46.2764 42.073 46.2764 40.2925 45.1466 39.1991Z" fill="#B72727"/>
</svg>
