<svg width="239" height="159" viewBox="0 0 239 159" fill="none" xmlns="http://www.w3.org/2000/svg">
<path fill-rule="evenodd" clip-rule="evenodd" d="M198.741 157.472C213.18 154.6 226.519 147.779 237.285 137.796C238.5 136.669 238.496 134.765 237.325 133.594L218.233 114.502C217.061 113.33 215.168 113.338 213.923 114.432C207.794 119.818 200.34 123.508 192.303 125.107C183.283 126.901 173.933 125.98 165.436 122.46C156.94 118.941 149.677 112.981 144.568 105.334C139.458 97.6871 136.731 88.6968 136.731 79.5C136.731 70.3032 139.458 61.3129 144.568 53.666C149.677 46.0191 156.94 40.0591 165.436 36.5396C173.933 33.0201 183.283 32.0993 192.303 33.8935C200.34 35.4922 207.794 39.1824 213.923 44.568C215.168 45.6616 217.061 45.6698 218.233 44.4982L237.325 25.4064C238.496 24.2348 238.5 22.3307 237.285 21.2042C226.519 11.2206 213.18 4.39977 198.741 1.5276C183.319 -1.53992 167.335 0.0344481 152.808 6.05162C141.486 10.7414 44.1921 52.7387 1.81832 71.0392C-1.37396 72.4179 -0.0575045 77.4219 3.40039 77.0553C38.2121 73.3652 103.731 67.9536 103.731 79.5C103.731 95.2237 108.394 110.594 117.129 123.668C125.865 136.742 138.281 146.931 152.808 152.948C167.335 158.966 183.319 160.54 198.741 157.472Z" fill="url(#paint0_linear_29_91)"/>
<path d="M208.679 67.1981C208.679 54.1014 198.604 43.3892 181.814 43.3892C165.025 43.3892 155.788 54.1014 155.788 67.1981C155.788 80.2948 159.484 78.614 159.484 86.0053C159.484 88.777 156.796 87.4329 156.796 93.3965C156.796 99.9423 165.946 99.021 168.634 101.704C171.317 104.392 171.064 109.348 171.064 109.348C171.064 109.348 171.57 111.361 172.494 110.771C172.494 110.771 173.082 112.199 173.755 111.358C173.755 111.358 174.426 112.783 175.096 111.611C175.096 111.611 175.77 113.206 176.861 112.032C176.861 112.032 177.949 113.626 179.215 112.368C179.215 112.368 180.64 113.71 182.235 112.705C183.829 113.71 185.257 112.368 185.257 112.368C186.515 113.626 187.611 112.032 187.611 112.032C188.699 113.209 189.368 111.611 189.368 111.611C190.046 112.786 190.709 111.358 190.709 111.358C191.385 112.199 191.975 110.771 191.975 110.771C192.896 111.358 193.4 109.346 193.4 109.346C193.4 109.346 193.147 104.395 195.835 101.707C198.523 99.0235 207.671 99.9449 207.671 93.3965C207.671 87.4354 204.988 88.777 204.988 86.0053C204.988 78.614 208.684 80.2948 208.684 67.1981H208.679ZM169.156 92.136C164.642 92.8574 162.6 91.5918 162.106 88.3593C160.82 79.9353 168.573 78.5735 172.434 79.0368C174.281 79.2595 177.471 81.2187 177.471 83.6563C177.471 90.2046 173.355 91.4652 169.156 92.136ZM184.667 103.046C183.832 103.046 182.49 101.957 182.404 99.9423C182.321 101.957 180.809 103.048 179.974 103.048C179.131 103.048 177.873 102.213 177.787 100.195C177.704 98.1806 180.389 90.0376 182.323 90.0376C184.252 90.0376 186.94 98.1806 186.854 100.195C186.768 102.21 185.513 103.048 184.67 103.048L184.667 103.046ZM202.133 88.3593C201.642 91.5918 199.594 92.8574 195.081 92.136C190.884 91.4627 186.771 90.2046 186.771 83.6563C186.771 81.2187 189.96 79.2595 191.808 79.0368C195.668 78.5735 203.424 79.9353 202.133 88.3593Z" fill="url(#paint1_linear_29_91)"/>
<defs>
<linearGradient id="paint0_linear_29_91" x1="-21.2679" y1="1.82435e-06" x2="305.308" y2="143.131" gradientUnits="userSpaceOnUse">
<stop stop-color="#AF1FD2"/>
<stop offset="1" stop-color="#D03CF4"/>
</linearGradient>
<linearGradient id="paint1_linear_29_91" x1="151.065" y1="43.3892" x2="233.454" y2="61.6839" gradientUnits="userSpaceOnUse">
<stop stop-color="#AF1FD2"/>
<stop offset="1" stop-color="#D03CF4"/>
</linearGradient>
</defs>
</svg>
