<svg width="12" height="11" viewBox="0 0 12 11" fill="none" xmlns="http://www.w3.org/2000/svg">
<path d="M5.01741 1.55786H1.54033C1.27685 1.55786 1.02416 1.66083 0.83785 1.84412C0.651542 2.02741 0.546875 2.276 0.546875 2.53521V9.37664C0.546875 9.63585 0.651542 9.88444 0.83785 10.0677C1.02416 10.251 1.27685 10.354 1.54033 10.354H8.49449C8.75797 10.354 9.01066 10.251 9.19697 10.0677C9.38328 9.88444 9.48794 9.63585 9.48794 9.37664V5.95592" stroke="white" stroke-linecap="round" stroke-linejoin="round"/>
<path d="M8.74297 0.825107C8.94058 0.630701 9.20859 0.521484 9.48806 0.521484C9.76752 0.521484 10.0355 0.630701 10.2331 0.825107C10.4308 1.01951 10.5418 1.28319 10.5418 1.55812C10.5418 1.83305 10.4308 2.09672 10.2331 2.29113L5.51425 6.93353L3.52734 7.4222L4.02407 5.46751L8.74297 0.825107Z" stroke="white" stroke-linecap="round" stroke-linejoin="round"/>
</svg>
