<svg width="10" height="10" viewBox="0 0 10 10" fill="none" xmlns="http://www.w3.org/2000/svg">
<path d="M5.03094 0.504639C4.14138 0.504639 3.27178 0.764143 2.53213 1.25033C1.79248 1.73653 1.216 2.42757 0.875575 3.23608C0.535152 4.04458 0.446082 4.93424 0.619628 5.79255C0.793174 6.65086 1.22154 7.43926 1.85056 8.05807C2.47958 8.67687 3.281 9.09828 4.15348 9.26901C5.02595 9.43974 5.9303 9.35211 6.75215 9.01722C7.57401 8.68233 8.27646 8.1152 8.77068 7.38756C9.26489 6.65993 9.52868 5.80446 9.52868 4.92933C9.52741 3.75622 9.05314 2.6315 8.20992 1.80198C7.36671 0.972461 6.22343 0.505888 5.03094 0.504639ZM5.03094 8.24786C4.36377 8.24786 3.71157 8.05323 3.15684 7.68858C2.6021 7.32394 2.16973 6.80566 1.91442 6.19928C1.6591 5.5929 1.5923 4.92565 1.72246 4.28192C1.85262 3.63819 2.17389 3.04689 2.64566 2.58279C3.11742 2.11868 3.71849 1.80262 4.37284 1.67458C5.0272 1.54653 5.70546 1.61225 6.32185 1.86342C6.93824 2.11459 7.46508 2.53993 7.83574 3.08566C8.20641 3.63139 8.40425 4.27299 8.40425 4.92933C8.40327 5.80917 8.04756 6.65269 7.41515 7.27482C6.78275 7.89696 5.9253 8.2469 5.03094 8.24786Z" fill="white"/>
<path d="M6.15581 4.37622H3.90694C3.75783 4.37622 3.61483 4.43449 3.5094 4.53822C3.40396 4.64194 3.34473 4.78262 3.34473 4.92931C3.34473 5.076 3.40396 5.21668 3.5094 5.3204C3.61483 5.42412 3.75783 5.48239 3.90694 5.48239H6.15581C6.30492 5.48239 6.44792 5.42412 6.55336 5.3204C6.6588 5.21668 6.71803 5.076 6.71803 4.92931C6.71803 4.78262 6.6588 4.64194 6.55336 4.53822C6.44792 4.43449 6.30492 4.37622 6.15581 4.37622Z" fill="white"/>
</svg>
