<svg width="25" height="25" viewBox="0 0 25 25" fill="none" xmlns="http://www.w3.org/2000/svg">
<path d="M12.4563 17.4937C11.4709 17.4937 10.5076 17.2005 9.68833 16.6513C8.86902 16.1021 8.23045 15.3215 7.85337 14.4082C7.47628 13.4949 7.37762 12.49 7.56985 11.5204C7.76209 10.5509 8.23659 9.66026 8.93336 8.96125C9.63012 8.26224 10.5178 7.78621 11.4843 7.59336C12.4507 7.4005 13.4525 7.49948 14.3628 7.87778C15.2732 8.25608 16.0513 8.89671 16.5987 9.71866C17.1462 10.5406 17.4384 11.507 17.4384 12.4955C17.4384 13.8211 16.9135 15.0924 15.9792 16.0298C15.0448 16.9671 13.7776 17.4937 12.4563 17.4937ZM12.4563 9.16338C11.7993 9.16338 11.1572 9.3588 10.611 9.72494C10.0648 10.0911 9.63905 10.6115 9.38766 11.2204C9.13627 11.8292 9.0705 12.4992 9.19865 13.1456C9.32681 13.7919 9.64315 14.3857 10.1077 14.8517C10.5722 15.3177 11.164 15.635 11.8083 15.7636C12.4526 15.8922 13.1204 15.8262 13.7273 15.574C14.3342 15.3218 14.853 14.8947 15.2179 14.3467C15.5829 13.7988 15.7777 13.1545 15.7777 12.4955C15.7777 11.6118 15.4277 10.7642 14.8049 10.1393C14.182 9.51444 13.3371 9.16338 12.4563 9.16338Z" fill="white"/>
<path d="M16.6069 24.9907H8.30335C7.42246 24.9907 6.57764 24.6396 5.95475 24.0147C5.33187 23.3898 4.98193 22.5423 4.98193 21.6586V19.5343C4.98343 19.3689 5.03397 19.2077 5.12714 19.0712C5.2203 18.9347 5.35187 18.8291 5.50506 18.7679L8.52755 17.5517C8.63 17.5061 8.74059 17.4819 8.85265 17.4803C8.96471 17.4788 9.07592 17.5 9.17959 17.5427C9.28326 17.5854 9.37723 17.6487 9.45585 17.7289C9.53447 17.809 9.59611 17.9043 9.63705 18.0089C9.678 18.1136 9.6974 18.2255 9.69409 18.3378C9.69078 18.4502 9.66483 18.5608 9.6178 18.6628C9.57077 18.7649 9.50364 18.8563 9.42044 18.9317C9.33724 19.007 9.23971 19.0646 9.13371 19.1012L6.64264 20.1008V21.6586C6.64264 22.1004 6.81761 22.5242 7.12905 22.8366C7.4405 23.1491 7.86291 23.3246 8.30335 23.3246H16.6069C17.0474 23.3246 17.4698 23.1491 17.7812 22.8366C18.0926 22.5242 18.2676 22.1004 18.2676 21.6586V20.1008L15.7765 19.1012C15.5717 19.0194 15.4077 18.8594 15.3205 18.6563C15.2333 18.4532 15.2301 18.2237 15.3116 18.0182C15.393 17.8127 15.5525 17.6482 15.755 17.5607C15.9574 17.4732 16.1862 17.47 16.391 17.5517L19.4135 18.7679C19.5667 18.8291 19.6983 18.9347 19.7914 19.0712C19.8846 19.2077 19.9351 19.3689 19.9366 19.5343V21.6586C19.9366 22.0968 19.8504 22.5308 19.683 22.9356C19.5156 23.3404 19.2702 23.7081 18.9609 24.0177C18.6516 24.3272 18.2844 24.5725 17.8805 24.7394C17.4766 24.9064 17.0438 24.9918 16.6069 24.9907Z" fill="white"/>
<path d="M6.64299 8.33031C5.82184 8.33031 5.01914 8.08603 4.33639 7.62836C3.65363 7.17068 3.12149 6.52018 2.80725 5.75909C2.49301 4.99801 2.41079 4.16054 2.57099 3.35258C2.73119 2.54461 3.1266 1.80245 3.70724 1.21995C4.28788 0.63744 5.02765 0.240748 5.83302 0.0800342C6.63838 -0.0806793 7.47317 0.0018047 8.2318 0.317055C8.99044 0.632306 9.63886 1.16616 10.0951 1.85112C10.5513 2.53608 10.7948 3.34137 10.7948 4.16516C10.7948 4.71213 10.6874 5.25375 10.4787 5.75909C10.2701 6.26443 9.96426 6.7236 9.57874 7.11037C9.19321 7.49714 8.73552 7.80394 8.2318 8.01326C7.72809 8.22258 7.18821 8.33031 6.64299 8.33031ZM6.64299 1.66606C6.1503 1.66606 5.66868 1.81263 5.25903 2.08724C4.84937 2.36184 4.53009 2.75215 4.34154 3.2088C4.153 3.66544 4.10367 4.16793 4.19979 4.65271C4.29591 5.13748 4.53316 5.58278 4.88154 5.93228C5.22992 6.28179 5.67379 6.5198 6.15701 6.61623C6.64022 6.71266 7.1411 6.66317 7.59628 6.47402C8.05146 6.28487 8.44051 5.96455 8.71423 5.55358C8.98796 5.1426 9.13405 4.65943 9.13405 4.16516C9.13405 3.50236 8.8716 2.8667 8.40444 2.39803C7.93727 1.92936 7.30366 1.66606 6.64299 1.66606Z" fill="white"/>
<path d="M5.81249 15.3197H3.32142C2.44053 15.3197 1.59571 14.9687 0.972822 14.3438C0.349935 13.7189 3.89267e-07 12.8713 3.89267e-07 11.9876V10.5298C-0.000160601 10.363 0.0496181 10.1999 0.142889 10.0618C0.236159 9.92367 0.368624 9.81682 0.523124 9.75509L3.17196 8.7138C3.37368 8.63347 3.59874 8.63556 3.79895 8.71964C3.99915 8.80372 4.15859 8.96309 4.24311 9.16364C4.28356 9.26536 4.30362 9.37409 4.30213 9.48361C4.30065 9.59312 4.27765 9.70126 4.23446 9.80185C4.19127 9.90243 4.12874 9.99349 4.05043 10.0698C3.97213 10.1461 3.87959 10.2062 3.77812 10.2466L1.66071 11.0963V11.9876C1.66071 12.4295 1.83568 12.8532 2.14712 13.1657C2.45856 13.4781 2.88097 13.6537 3.32142 13.6537H5.81249C6.03271 13.6537 6.24391 13.7414 6.39963 13.8977C6.55536 14.0539 6.64284 14.2658 6.64284 14.4867C6.64284 14.7076 6.55536 14.9195 6.39963 15.0757C6.24391 15.232 6.03271 15.3197 5.81249 15.3197Z" fill="white"/>
<path d="M18.2675 8.33031C17.4464 8.33031 16.6437 8.08603 15.9609 7.62836C15.2781 7.17068 14.746 6.52018 14.4318 5.75909C14.1175 4.99801 14.0353 4.16054 14.1955 3.35258C14.3557 2.54461 14.7511 1.80245 15.3318 1.21995C15.9124 0.63744 16.6522 0.240748 17.4575 0.0800342C18.2629 -0.0806793 19.0977 0.0018047 19.8563 0.317055C20.615 0.632306 21.2634 1.16616 21.7196 1.85112C22.1758 2.53608 22.4193 3.34137 22.4193 4.16516C22.4193 5.26982 21.9819 6.32925 21.2032 7.11037C20.4246 7.89148 19.3686 8.33031 18.2675 8.33031ZM18.2675 1.66606C17.7748 1.66606 17.2932 1.81263 16.8835 2.08724C16.4739 2.36184 16.1546 2.75215 15.9661 3.2088C15.7775 3.66544 15.7282 4.16793 15.8243 4.65271C15.9204 5.13748 16.1577 5.58278 16.5061 5.93228C16.8544 6.28179 17.2983 6.5198 17.7815 6.61623C18.2647 6.71266 18.7656 6.66317 19.2208 6.47402C19.676 6.28487 20.065 5.96455 20.3387 5.55358C20.6125 5.1426 20.7586 4.65943 20.7586 4.16516C20.7586 3.50236 20.4961 2.8667 20.029 2.39803C19.5618 1.92936 18.9282 1.66606 18.2675 1.66606Z" fill="white"/>
<path d="M21.589 15.3198H19.0979C18.8777 15.3198 18.6665 15.232 18.5108 15.0758C18.3551 14.9195 18.2676 14.7077 18.2676 14.4867C18.2676 14.2658 18.3551 14.0539 18.5108 13.8977C18.6665 13.7415 18.8777 13.6537 19.0979 13.6537H21.589C22.0294 13.6537 22.4519 13.4782 22.7633 13.1657C23.0747 12.8533 23.2497 12.4295 23.2497 11.9876V11.0963L21.1323 10.2633C21.0308 10.2229 20.9383 10.1628 20.86 10.0865C20.7817 10.0102 20.7191 9.91912 20.676 9.81853C20.6328 9.71794 20.6098 9.6098 20.6083 9.50029C20.6068 9.39078 20.6269 9.28205 20.6673 9.18032C20.7471 8.97525 20.9045 8.81019 21.1052 8.72122C21.306 8.63224 21.5336 8.62659 21.7385 8.7055L24.3873 9.74678C24.5418 9.80851 24.6743 9.91536 24.7675 10.0535C24.8608 10.1916 24.9106 10.3547 24.9104 10.5215V11.9793C24.9115 12.4176 24.8264 12.8518 24.66 13.257C24.4935 13.6622 24.2491 14.0306 23.9405 14.3409C23.632 14.6512 23.2655 14.8973 22.862 15.0653C22.4585 15.2333 22.0259 15.3198 21.589 15.3198Z" fill="white"/>
</svg>
